<svg width="50" height="47" viewBox="0 0 50 47" fill="none" xmlns="http://www.w3.org/2000/svg">
<path d="M50 12.6545H11.6883L8.59522 0H0V1.8073H7.16069L16.0483 38.1619C14.1538 38.7095 12.7603 40.4235 12.7603 42.4801C12.7603 44.9757 14.8001 47 17.3187 47C19.8372 47 21.877 44.9757 21.877 42.4801C21.877 41.4577 21.5214 40.5252 20.9452 39.7691H33.7465C33.1703 40.5252 32.8147 41.4594 32.8147 42.4801C32.8147 44.9757 34.8545 47 37.3713 47C39.8882 47 41.9297 44.9757 41.9297 42.4801C41.9297 39.9827 39.8899 37.9618 37.3713 37.9601H17.8744L16.9904 34.3438H42.5828L49.9983 12.6511L50 12.6545ZM20.0527 42.4834C20.0527 43.9788 18.8267 45.1944 17.3187 45.1944C15.8106 45.1944 14.5847 43.9788 14.5847 42.4834C14.5847 40.9881 15.8106 39.7725 17.3187 39.7725C18.8267 39.7725 20.0527 40.9898 20.0527 42.4834ZM40.107 42.4834C40.107 43.9788 38.8794 45.1944 37.3713 45.1944C35.8633 45.1944 34.6373 43.9788 34.6373 42.4834C34.6373 40.9881 35.8633 39.7725 37.3713 39.7725C38.8794 39.7725 40.107 40.9898 40.107 42.4834ZM16.5493 32.5399L12.1294 14.4635H47.4575L41.2765 32.5399H16.5493Z" fill="#A8BBA2"/>
</svg>
